<svg width="377" height="91" viewBox="0 0 377 91" fill="none" xmlns="http://www.w3.org/2000/svg">
<path d="M0.528 89V6.56799H21.136V73.128H60.048V89H0.528ZM67.624 18.728V3.24H90.024V18.728H67.624ZM69.288 89V43.56H60.328L62.12 28.328H89.896V89H69.288ZM103.028 89V28.328H122.228L122.868 33.576C125.343 31.8693 128.457 30.376 132.212 29.096C135.967 27.7307 139.977 27.048 144.244 27.048C152.095 27.048 157.812 28.9253 161.396 32.68C164.98 36.4347 166.772 42.2373 166.772 50.088V89H146.164V51.752C146.164 48.3387 145.439 45.9067 143.988 44.456C142.537 43.0053 139.935 42.28 136.18 42.28C133.961 42.28 131.7 42.792 129.396 43.816C127.092 44.84 125.172 46.12 123.636 47.656V89H103.028ZM180.689 89V2.728H194.641V52.648L220.113 28.328H236.113L211.409 52.776L237.521 89H222.801L202.705 60.2L194.641 67.88V89H180.689ZM271.784 90.28C261.203 90.28 253.011 87.6773 247.208 82.472C241.405 77.2667 238.504 69.288 238.504 58.536C238.504 48.808 240.979 41.128 245.928 35.496C250.877 29.864 258.387 27.048 268.456 27.048C277.672 27.048 284.584 29.48 289.192 34.344C293.885 39.1227 296.232 45.3093 296.232 52.904V64.168H251.816C252.499 70.056 254.632 74.1093 258.216 76.328C261.8 78.5467 267.261 79.656 274.6 79.656C277.672 79.656 280.829 79.3573 284.072 78.76C287.315 78.1627 290.131 77.3947 292.52 76.456V86.696C289.789 87.8907 286.632 88.7867 283.048 89.384C279.549 89.9813 275.795 90.28 271.784 90.28ZM251.816 55.08H283.944V50.856C283.944 46.6747 282.792 43.432 280.488 41.128C278.184 38.7387 274.301 37.544 268.84 37.544C262.355 37.544 257.875 38.952 255.4 41.768C253.011 44.584 251.816 49.0213 251.816 55.08ZM308.79 89V82.472H315.574V89H308.79ZM336.449 89V34.216H327.105V28.328H336.449V19.496C336.449 13.4373 338.369 8.70133 342.209 5.28799C346.134 1.78933 351.212 0.0399933 357.441 0.0399933C363.158 0.0399933 367.51 0.722661 370.497 2.088V7.71999C369.302 7.12266 367.638 6.696 365.505 6.43999C363.457 6.09866 361.366 5.92799 359.233 5.92799C348.737 5.92799 343.489 10.408 343.489 19.368V28.328H376.257V89H369.217V34.216H343.489V89H336.449Z" fill="#2730F7"/>
</svg>
